<svg width="32" height="33" viewBox="0 0 32 33" fill="none" xmlns="http://www.w3.org/2000/svg">
<path d="M21.3337 11.167H10.667V21.8337H21.3337V11.167Z" fill="#7C5CFC"/>
<path opacity="0.4" d="M6.66699 29.833C8.86699 29.833 10.667 28.033 10.667 25.833V21.833H6.66699C4.46699 21.833 2.66699 23.633 2.66699 25.833C2.66699 28.033 4.46699 29.833 6.66699 29.833Z" fill="#7C5CFC"/>
<path opacity="0.4" d="M6.66699 11.167H10.667V7.16699C10.667 4.96699 8.86699 3.16699 6.66699 3.16699C4.46699 3.16699 2.66699 4.96699 2.66699 7.16699C2.66699 9.36699 4.46699 11.167 6.66699 11.167Z" fill="#7C5CFC"/>
<path opacity="0.4" d="M21.333 11.167H25.333C27.533 11.167 29.333 9.36699 29.333 7.16699C29.333 4.96699 27.533 3.16699 25.333 3.16699C23.133 3.16699 21.333 4.96699 21.333 7.16699V11.167Z" fill="#7C5CFC"/>
<path opacity="0.4" d="M25.333 29.833C27.533 29.833 29.333 28.033 29.333 25.833C29.333 23.633 27.533 21.833 25.333 21.833H21.333V25.833C21.333 28.033 23.133 29.833 25.333 29.833Z" fill="#7C5CFC"/>
</svg>
